<svg xmlns:dc="http://purl.org/dc/elements/1.1/" xmlns:cc="http://creativecommons.org/ns#" xmlns:rdf="http://www.w3.org/1999/02/22-rdf-syntax-ns#" xmlns:svg="http://www.w3.org/2000/svg" xmlns="http://www.w3.org/2000/svg" xmlns:sodipodi="http://sodipodi.sourceforge.net/DTD/sodipodi-0.dtd" xmlns:inkscape="http://www.inkscape.org/namespaces/inkscape" viewBox="0 0 80 80" version="1.1" x="0px" y="0px"><path d="m 39.006938,11.22586 c 1.184039,-0.94723 2.877207,-0.7239 4.128904,-0.23337 0.862657,0.38904 1.842032,1.01146 2.467881,1.78954 0.422871,0.49053 0.169148,1.16712 0.06766,1.72531 -0.211435,0.82883 -0.544214,1.34785 -0.530702,2.774 -0.713319,0.13371 -0.856255,0.26742 -1.093062,1.09625 -0.118404,0.64276 -0.495645,1.37847 -1.00309,1.49687 -0.415688,-0.0313 -0.46856,-0.19118 -0.874516,-0.25884 -0.507445,0.55819 0.236808,1.18404 0.541275,1.64074 0.862656,0.94723 0.778082,2.30042 1.133294,3.46754 0.104919,0.23524 -0.454776,0.41125 2.300417,3.56903 0.761167,1.40393 2.02978,2.38499 3.146159,3.46754 1.268612,1.18404 2.080524,2.7402 3.264562,4.00881 0.52436,0.57511 0.913401,1.4716 1.792973,1.53925 0.930315,-0.0169 1.250538,0.88583 2.180854,0.98732 1.932336,-0.33148 4.16318,-2.67936 5.718372,-4.81007 0.701925,-4.62731 7.34107,-11.18521 10.942757,-6.70957 3.049282,4.8606 -4.809537,9.06588 -9.318753,8.85101 -2.496398,0.90213 -3.257765,1.53943 -6.101378,4.5011 -0.794998,0.0846 0.170655,0.92688 -2.034836,1.84871 -0.422871,-0.0846 -0.913401,-0.16915 -1.065635,-0.62585 -0.236807,-0.62585 -0.964145,-0.64276 -1.420846,-1.03181 -1.657653,-2.04669 -4.02573,-3.3153 -6.089339,-4.9053 -1.200953,-0.74425 -1.640739,-2.18201 -2.571055,-3.17999 -0.49053,-0.54127 -0.913401,-1.13329 -1.319357,-1.74222 -2.34081,-3.5535 -2.078779,-1.44113 -2.586224,-2.38837 -0.841044,-1.50057 -3.673938,-0.1559 -4.488115,0.30553 -1.167124,0.33829 -2.668604,1.08486 -3.717324,1.84603 -1.133294,0.4567 -1.589994,1.64074 -2.097439,2.65563 -0.186063,0.38904 0.321382,0.59202 0.558189,0.795 2.148184,1.18403 4.02573,2.82477 6.224659,3.92424 0.608934,0.35521 1.420846,0.5751 1.708398,1.28552 0.744252,1.60691 0.541274,3.46754 1.200953,5.10828 0.439786,1.03181 0.862656,2.08053 0.997975,3.19691 0.118404,1.01489 0.794997,1.8268 0.896486,2.84169 0.287552,2.26659 1.674569,4.41477 3.788923,5.362 1.43776,0.74425 3.027755,1.09946 4.617749,1.31936 1.150208,0.16915 1.150208,2.04669 0.06766,2.31733 -1.809887,0.54127 -3.687433,0.99797 -5.598809,0.89649 -1.860632,-0.0846 -3.856582,0.47361 -5.59881,-0.37213 -0.270637,-1.33627 0.456701,-2.60489 0.507445,-3.92424 -0.608934,-3.60286 -3.788922,-6.10626 -4.448601,-9.70912 -0.253722,-1.13329 0.01692,-2.33424 -0.287552,-3.45062 -1.47159,-0.84574 -3.213818,-0.99798 -4.871472,-1.2517 -0.862656,-0.1184 -1.640739,-0.59202 -2.52031,-0.65968 -0.541274,0.54128 -0.52436,1.38702 -0.676593,2.09744 -0.169148,1.40393 -0.862657,2.63872 -1.285527,3.97499 -0.304467,1.08255 -1.167124,1.9452 -1.251698,3.09541 -0.101489,0.55819 -0.05074,1.26861 -0.608934,1.60691 -0.879571,0.5751 -1.945206,0.76117 -2.977011,0.69351 -1.556164,-0.10149 -3.01084,0.65968 -4.567004,0.62585 -2.52031,0.0507 -5.10828,0.0846 -7.4594407,1.09946 -0.7104234,0.35521 -1.2347832,1.03181 -2.0466952,1.16713 -1.6069091,0.33829 -3.0108402,1.21786 -4.4147713,2.02977 -0.4567004,0.32139 -1.113959,0.0576 -1.2601849,-0.35346 -0.57585256,-1.61871 1.5646519,-2.92801 2.968583,-4.21354 0.5751043,-0.50744 1.0656345,-1.09946 1.5054201,-1.72531 0.7442526,-1.06564 1.7422278,-1.91138 2.6725436,-2.82478 0.6596787,0.50745 1.1502087,1.18404 1.7760577,1.72531 0.4397847,0.40596 1.0825487,0.25373 1.5730787,0.0338 1.792972,-0.77808 3.5352,-1.7084 5.463491,-2.14818 0.913401,-0.23681 1.860632,0.0169 2.790947,-0.0846 0.828827,-1.35318 0.405956,-3.02775 0.304467,-4.51626 -0.270637,-0.10148 -0.541274,-0.20297 -0.811912,-0.28755 0.118404,-1.31935 0.253723,-2.63871 0.59202,-3.92424 0.355211,-1.26861 -0.811912,-2.24967 -0.930316,-3.46754 -0.219893,-1.47159 0.338296,-2.89244 0.862656,-4.22871 0.625849,-1.35318 1.370102,-2.70637 2.452651,-3.77201 1.437761,-1.86063 3.061585,-3.58594 4.753068,-5.22668 1.116379,-0.71042 2.012865,-1.77606 3.332222,-2.11435 1.420846,-0.4567 2.790947,-1.06564 4.228708,-1.48851 1.04872,-0.25372 1.826802,-1.08255 2.571055,-1.8268 0.389041,-0.93032 -0.135319,-2.01286 0.389041,-2.92627 0.4567,-0.81191 0.769655,-1.67032 1.43776,-2.38499 z" style="" fill="#000000" stroke="none"></path><path d="m 77.23446,24.45326 c 0.676593,-0.25372 1.573079,-0.0677 1.945206,0.59202 0.4567,0.71042 0.08457,1.75914 -0.659679,2.09744 -0.676593,0.25372 -1.589994,0.23681 -2.063609,-0.38904 -0.608934,-0.77808 -0.06766,-1.96212 0.778082,-2.30042 z" style="" fill="#000000" stroke="none"></path></svg>